<svg version="1.1" id="Layer_1" xmlns="http://www.w3.org/2000/svg" xmlns:xlink="http://www.w3.org/1999/xlink" x="0px" y="0px"
	 width="100%" viewBox="0 0 749 476" enable-background="new 0 0 749 476" xml:space="preserve">
<path fill="#FDFBFC" opacity="1.000000" stroke="none" 
	d="
M543.000000,477.000000 
	C362.000000,477.000000 181.500000,477.000000 1.000000,477.000000 
	C1.000000,318.333344 1.000000,159.666672 1.000000,1.000000 
	C250.666672,1.000000 500.333344,1.000000 750.000000,1.000000 
	C750.000000,159.666672 750.000000,318.333344 750.000000,477.000000 
	C681.166687,477.000000 612.333313,477.000000 543.000000,477.000000 
M320.264069,47.751820 
	C275.643311,62.203629 240.108398,88.959167 213.449432,127.386780 
	C199.339767,147.725143 189.351501,170.021133 183.606995,194.846588 
	C194.805771,194.846588 205.277908,194.949203 215.741714,194.701019 
	C216.893112,194.673706 218.457092,192.838623 219.048416,191.497498 
	C223.106674,182.293411 226.381805,172.701233 230.977173,163.784470 
	C247.344635,132.025406 271.443115,107.645073 303.244415,91.328865 
	C331.913605,76.619659 362.351654,70.064575 394.740631,72.797989 
	C408.971039,73.998940 422.800812,76.543793 436.304810,81.028786 
	C463.213501,89.965790 486.647980,104.643906 506.281006,124.987503 
	C524.704590,144.077881 538.011780,166.438934 546.140747,191.803680 
	C546.532654,193.026367 548.178528,194.689453 549.272217,194.713654 
	C559.390625,194.937546 569.516052,194.845856 579.656189,194.845856 
	C579.656189,193.925552 579.759766,193.414261 579.641479,192.960876 
	C567.734924,147.334305 543.327148,109.766518 506.117126,80.872673 
	C469.833771,52.698391 428.393707,38.624390 382.457703,38.028114 
	C361.472534,37.755718 341.038483,41.454739 320.264069,47.751820 
M202.962875,339.527924 
	C221.829376,373.777802 248.311829,400.484009 282.277130,419.846832 
	C312.473114,437.060852 345.004089,445.881561 379.657166,445.790558 
	C393.480316,445.754211 407.444000,444.220886 421.088867,441.882111 
	C458.072906,435.542816 489.924408,418.268219 517.782349,393.580505 
	C534.802551,378.497223 548.764648,360.778381 559.852844,340.848938 
	C568.756409,324.846069 575.609314,308.072876 579.764160,289.735809 
	C569.387451,289.735809 559.408875,289.606140 549.442871,289.901642 
	C548.211182,289.938141 546.437866,292.035065 545.940002,293.520569 
	C533.241394,331.407593 510.602295,362.112122 477.564392,384.306366 
	C435.969391,412.249115 390.223450,420.974670 341.247620,408.904541 
	C296.447357,397.863525 262.562805,371.551575 237.793732,332.994598 
	C229.199615,319.616486 223.156586,305.081604 218.387405,290.011841 
	C206.819748,290.011841 195.557587,290.011841 183.791595,290.011841 
	C187.756424,307.485016 194.223206,323.547363 202.962875,339.527924 
M452.919189,130.565674 
	C436.497589,118.388832 417.706451,113.264366 397.628418,113.089439 
	C360.988586,112.770218 324.344025,112.998611 287.701416,112.998573 
	C286.258209,112.998573 284.815033,112.998581 283.252380,112.998581 
	C283.252380,140.430145 283.252380,167.329224 283.252380,194.491821 
	C284.589569,194.626053 285.712097,194.834702 286.835022,194.836792 
	C299.659882,194.860611 312.487244,194.713806 325.308258,194.937805 
	C329.196442,195.005737 330.055328,193.601135 329.993103,190.004379 
	C329.794342,178.515396 330.020782,167.019363 329.860016,155.529190 
	C329.813965,152.236206 331.074036,150.976685 334.194489,151.072037 
	C355.617432,151.726822 377.088593,151.691956 398.449768,153.208954 
	C416.727173,154.506943 429.298309,166.784897 432.846283,184.371658 
	C433.533966,187.780304 432.913666,192.991394 434.879242,194.233276 
	C437.640900,195.978180 442.256531,194.836349 446.079498,194.844925 
	C457.339020,194.870178 468.598633,194.853928 480.245422,194.853928 
	C479.913452,169.508636 473.935486,147.246429 452.919189,130.565674 
M400.524658,289.730743 
	C396.573273,289.730743 392.621857,289.730743 388.462189,289.730743 
	C388.716980,290.653015 388.765259,291.156494 388.983429,291.570435 
	C402.515442,317.242889 416.021515,342.929291 429.722321,368.511444 
	C430.414917,369.804657 432.777130,370.834412 434.399811,370.890472 
	C441.721802,371.143280 449.057404,371.000885 456.388123,371.000916 
	C463.609985,371.000916 470.831879,371.000916 477.981964,371.000916 
	C478.055023,370.204529 478.138855,370.005768 478.075043,369.884949 
	C464.449402,344.076843 450.859650,318.249359 437.053925,292.537842 
	C436.287476,291.110413 433.748718,289.897461 432.003418,289.854218 
	C421.846619,289.602509 411.680420,289.730743 400.524658,289.730743 
M300.501282,371.000824 
	C310.247498,371.000824 319.993744,371.000824 329.600342,371.000824 
	C329.600342,343.634430 329.600342,316.927765 329.600342,290.154266 
	C313.924286,290.154266 298.579956,290.154266 283.303314,290.154266 
	C283.303314,317.285645 283.303314,343.992462 283.303314,371.000824 
	C288.902283,371.000824 294.202087,371.000824 300.501282,371.000824 
M447.090027,207.198380 
	C439.305695,224.302048 431.521332,241.405716 423.528320,258.967896 
	C422.525848,256.888092 421.719788,255.290298 420.977234,253.663544 
	C414.271271,238.972488 407.633423,224.249680 400.791870,209.622116 
	C400.092682,208.127136 398.321381,206.410736 396.821503,206.162399 
	C393.624054,205.632996 390.278107,206.000534 387.005371,206.000534 
	C387.005371,230.283859 387.005371,253.992828 387.005371,277.706329 
	C391.126740,277.706329 394.873688,277.706329 399.153534,277.706329 
	C399.153534,262.801239 399.153534,248.184952 399.153534,233.568665 
	C406.224609,247.226486 412.672607,260.906891 418.818756,274.721588 
	C419.960724,277.288300 421.268738,278.731628 423.851288,277.899384 
	C425.397583,277.401093 427.233337,276.183105 427.890320,274.792999 
	C434.468109,260.874451 440.827881,246.852859 447.249146,232.860321 
	C447.548065,232.929092 447.847015,232.997864 448.145935,233.066650 
	C448.145935,247.945160 448.145935,262.823669 448.145935,277.678955 
	C452.330841,277.678955 456.063782,277.678955 459.760986,277.678955 
	C459.760986,253.636398 459.760986,229.918579 459.760986,205.795441 
	C455.398285,206.033707 451.445984,206.249573 447.090027,207.198380 
M619.453918,214.016769 
	C611.227417,207.029160 601.637207,204.803940 590.984985,204.844116 
	C570.221497,204.922440 554.821289,220.839767 554.711548,240.711197 
	C554.611206,258.871918 564.544067,273.082764 582.208496,276.650116 
	C589.428040,278.108093 597.038330,277.795166 604.478027,277.956909 
	C613.561951,278.154480 622.653503,278.003998 631.658691,278.003998 
	C631.658691,273.974670 631.658691,270.582520 631.658691,266.700592 
	C627.638062,266.700592 623.962585,266.700592 619.842773,266.700592 
	C635.836487,250.011627 633.099609,228.005966 619.453918,214.016769 
M138.458145,278.002991 
	C140.218445,278.002991 141.978745,278.002991 144.197205,278.002991 
	C144.197205,268.965851 144.197205,260.561676 144.197205,251.905060 
	C147.805511,251.905060 150.984253,252.187775 154.089432,251.830704 
	C157.656647,251.420517 159.422226,252.980652 160.899780,255.991364 
	C164.093933,262.499878 167.535645,268.890320 171.023834,275.247986 
	C171.637344,276.366180 172.906479,277.772003 173.981308,277.871307 
	C177.552002,278.201324 181.172150,277.996063 185.556046,277.996063 
	C180.584854,268.466431 175.978012,259.635254 171.298569,250.664902 
	C172.431793,250.026978 173.280197,249.533661 174.142685,249.066330 
	C183.587830,243.948593 187.419052,236.017426 185.976898,224.556915 
	C184.809662,215.281326 179.147568,208.322861 168.499847,207.219727 
	C156.260971,205.951767 143.789841,206.925415 131.315720,206.925415 
	C131.315720,230.249161 131.315720,253.953384 131.315720,278.002991 
	C133.570190,278.002991 135.537842,278.002991 138.458145,278.002991 
M316.224396,265.058685 
	C319.900391,268.715240 323.021973,273.338135 327.365936,275.830444 
	C336.891449,281.295593 347.355560,280.592804 357.516327,277.372040 
	C364.126068,275.276886 369.134979,270.766968 371.436737,264.144775 
	C372.925232,259.862427 374.011414,255.221649 374.111694,250.715546 
	C374.440125,235.950851 374.235016,221.174286 374.235016,206.319839 
	C369.937683,206.319839 365.886780,206.319839 361.453583,206.319839 
	C361.453583,208.111725 361.462677,209.585297 361.452118,211.058716 
	C361.354401,224.699829 361.077850,238.342636 361.209290,251.981506 
	C361.312775,262.716705 351.582825,268.730591 341.974915,267.937408 
	C331.621094,267.082642 326.010895,260.660278 326.004059,250.178009 
	C325.994568,235.584305 326.001678,220.990601 326.001678,206.287125 
	C321.436646,206.287125 317.381531,206.287125 312.998352,206.287125 
	C312.998352,220.856384 312.747192,235.146133 313.134521,249.418549 
	C313.270111,254.415359 314.976562,259.369537 316.224396,265.058685 
M475.709625,205.998566 
	C471.842865,205.645721 473.041016,208.565750 473.035736,210.408142 
	C472.974670,231.737610 472.992767,253.067307 473.008545,274.396942 
	C473.009338,275.505280 473.179047,276.613495 473.258820,277.584564 
	C489.644379,277.584564 505.686432,277.584564 521.869202,277.584564 
	C521.869202,275.669067 521.695557,274.147858 521.902100,272.680145 
	C522.500366,268.429321 521.109436,266.327606 516.506287,267.058075 
	C515.043335,267.290222 513.512573,267.094360 512.012817,267.094360 
	C503.424622,267.094360 494.836395,267.094330 486.293823,267.094330 
	C486.293823,260.145020 486.293823,253.893906 486.293823,247.139084 
	C494.982819,247.139084 503.392792,247.139084 511.975403,247.139084 
	C511.975403,243.560822 511.975403,240.494003 511.975403,236.990906 
	C503.302948,236.990906 494.880127,236.990906 486.247314,236.990906 
	C486.247314,230.151184 486.247314,223.751160 486.247314,216.905685 
	C495.273682,216.905685 504.061066,216.905685 512.848450,216.905685 
	C522.324524,216.905685 522.331421,216.905289 521.786560,207.493668 
	C521.761047,207.052460 521.420898,206.629486 521.137024,205.996780 
	C506.314240,205.996780 491.495483,205.996780 475.709625,205.998566 
M234.479492,205.996124 
	C222.066818,205.996124 209.654129,205.996124 197.334808,205.996124 
	C197.334808,230.360092 197.334808,254.065643 197.334808,277.713745 
	C213.417084,277.713745 229.158966,277.713745 244.777832,277.713745 
	C244.777832,274.048096 244.777832,270.684387 244.777832,266.846832 
	C232.912659,266.846832 221.518921,266.846832 210.240891,266.846832 
	C210.240891,260.110840 210.240891,253.867783 210.240891,247.088867 
	C218.940872,247.088867 227.327637,247.088867 235.714935,247.088867 
	C235.714935,243.465714 235.714935,240.392410 235.714935,236.859894 
	C227.033920,236.859894 218.631042,236.859894 210.241776,236.859894 
	C210.241776,229.990143 210.241776,223.597565 210.241776,216.743256 
	C221.965546,216.743256 233.368744,216.743256 245.004608,216.743256 
	C245.004608,213.020706 245.004608,209.767609 245.004608,205.996124 
	C241.713959,205.996124 238.591965,205.996124 234.479492,205.996124 
M257.445831,213.067093 
	C250.723907,220.952301 252.860764,234.401413 260.965118,239.324951 
	C267.112701,243.059692 273.866425,245.782578 280.207733,249.219040 
	C282.900604,250.678329 286.038788,252.301956 287.566986,254.735016 
	C291.754730,261.402374 286.550751,269.150391 277.781799,268.848511 
	C269.636963,268.568085 261.534332,267.061127 253.252182,266.075012 
	C253.252182,268.609528 253.252182,272.033997 253.252182,275.434540 
	C262.580902,279.441193 275.905945,280.845123 285.926727,278.898102 
	C295.102570,277.115204 301.646606,270.758087 302.907715,262.402039 
	C304.183838,253.946472 300.337128,246.461044 291.916901,241.975418 
	C286.100189,238.876740 279.974396,236.363876 274.080231,233.403091 
	C269.851807,231.279007 266.563690,228.135757 267.248993,222.933151 
	C267.826965,218.545319 273.047638,214.752731 278.552185,215.113693 
	C285.341003,215.558838 292.077393,216.804077 298.786133,217.696884 
	C298.786133,215.183502 298.786133,211.729126 298.786133,206.942322 
	C291.003082,206.286697 283.342194,205.419067 275.657593,205.059753 
	C268.693573,204.734131 262.858582,207.662598 257.445831,213.067093 
M543.999634,263.494995 
	C543.999634,244.444504 543.999634,225.394012 543.999634,206.311172 
	C539.384216,206.311172 535.334167,206.311172 531.279907,206.311172 
	C531.279907,230.299713 531.279907,253.976517 531.279907,277.688782 
	C535.615906,277.688782 539.666016,277.688782 543.999634,277.688782 
	C543.999634,273.084442 543.999634,268.788025 543.999634,263.494995 
z"/>
<path fill="#772F69" opacity="1.000000" stroke="none" 
	d="
M320.614014,47.554478 
	C341.038483,41.454739 361.472534,37.755718 382.457703,38.028114 
	C428.393707,38.624390 469.833771,52.698391 506.117126,80.872673 
	C543.327148,109.766518 567.734924,147.334305 579.641479,192.960876 
	C579.759766,193.414261 579.656189,193.925552 579.656189,194.845856 
	C569.516052,194.845856 559.390625,194.937546 549.272217,194.713654 
	C548.178528,194.689453 546.532654,193.026367 546.140747,191.803680 
	C538.011780,166.438934 524.704590,144.077881 506.281006,124.987503 
	C486.647980,104.643906 463.213501,89.965790 436.304810,81.028786 
	C422.800812,76.543793 408.971039,73.998940 394.740631,72.797989 
	C362.351654,70.064575 331.913605,76.619659 303.244415,91.328865 
	C271.443115,107.645073 247.344635,132.025406 230.977173,163.784470 
	C226.381805,172.701233 223.106674,182.293411 219.048416,191.497498 
	C218.457092,192.838623 216.893112,194.673706 215.741714,194.701019 
	C205.277908,194.949203 194.805771,194.846588 183.606995,194.846588 
	C189.351501,170.021133 199.339767,147.725143 213.449432,127.386780 
	C240.108398,88.959167 275.643311,62.203629 320.614014,47.554478 
z"/>
<path fill="#772E69" opacity="1.000000" stroke="none" 
	d="
M202.752594,339.221313 
	C194.223206,323.547363 187.756424,307.485016 183.791595,290.011841 
	C195.557587,290.011841 206.819748,290.011841 218.387405,290.011841 
	C223.156586,305.081604 229.199615,319.616486 237.793732,332.994598 
	C262.562805,371.551575 296.447357,397.863525 341.247620,408.904541 
	C390.223450,420.974670 435.969391,412.249115 477.564392,384.306366 
	C510.602295,362.112122 533.241394,331.407593 545.940002,293.520569 
	C546.437866,292.035065 548.211182,289.938141 549.442871,289.901642 
	C559.408875,289.606140 569.387451,289.735809 579.764160,289.735809 
	C575.609314,308.072876 568.756409,324.846069 559.852844,340.848938 
	C548.764648,360.778381 534.802551,378.497223 517.782349,393.580505 
	C489.924408,418.268219 458.072906,435.542816 421.088867,441.882111 
	C407.444000,444.220886 393.480316,445.754211 379.657166,445.790558 
	C345.004089,445.881561 312.473114,437.060852 282.277130,419.846832 
	C248.311829,400.484009 221.829376,373.777802 202.752594,339.221313 
z"/>
<path fill="#772E69" opacity="1.000000" stroke="none" 
	d="
M453.195160,130.794922 
	C473.935486,147.246429 479.913452,169.508636 480.245422,194.853928 
	C468.598633,194.853928 457.339020,194.870178 446.079498,194.844925 
	C442.256531,194.836349 437.640900,195.978180 434.879242,194.233276 
	C432.913666,192.991394 433.533966,187.780304 432.846283,184.371658 
	C429.298309,166.784897 416.727173,154.506943 398.449768,153.208954 
	C377.088593,151.691956 355.617432,151.726822 334.194489,151.072037 
	C331.074036,150.976685 329.813965,152.236206 329.860016,155.529190 
	C330.020782,167.019363 329.794342,178.515396 329.993103,190.004379 
	C330.055328,193.601135 329.196442,195.005737 325.308258,194.937805 
	C312.487244,194.713806 299.659882,194.860611 286.835022,194.836792 
	C285.712097,194.834702 284.589569,194.626053 283.252380,194.491821 
	C283.252380,167.329224 283.252380,140.430145 283.252380,112.998581 
	C284.815033,112.998581 286.258209,112.998573 287.701416,112.998573 
	C324.344025,112.998611 360.988586,112.770218 397.628418,113.089439 
	C417.706451,113.264366 436.497589,118.388832 453.195160,130.794922 
z"/>
<path fill="#772E69" opacity="1.000000" stroke="none" 
	d="
M401.021027,289.730652 
	C411.680420,289.730743 421.846619,289.602509 432.003418,289.854218 
	C433.748718,289.897461 436.287476,291.110413 437.053925,292.537842 
	C450.859650,318.249359 464.449402,344.076843 478.075043,369.884949 
	C478.138855,370.005768 478.055023,370.204529 477.981964,371.000916 
	C470.831879,371.000916 463.609985,371.000916 456.388123,371.000916 
	C449.057404,371.000885 441.721802,371.143280 434.399811,370.890472 
	C432.777130,370.834412 430.414917,369.804657 429.722321,368.511444 
	C416.021515,342.929291 402.515442,317.242889 388.983429,291.570435 
	C388.765259,291.156494 388.716980,290.653015 388.462189,289.730743 
	C392.621857,289.730743 396.573273,289.730743 401.021027,289.730652 
z"/>
<path fill="#772E69" opacity="1.000000" stroke="none" 
	d="
M300.001587,371.000824 
	C294.202087,371.000824 288.902283,371.000824 283.303314,371.000824 
	C283.303314,343.992462 283.303314,317.285645 283.303314,290.154266 
	C298.579956,290.154266 313.924286,290.154266 329.600342,290.154266 
	C329.600342,316.927765 329.600342,343.634430 329.600342,371.000824 
	C319.993744,371.000824 310.247498,371.000824 300.001587,371.000824 
z"/>
<path fill="#762F69" opacity="1.000000" stroke="none" 
	d="
M447.291840,206.831909 
	C451.445984,206.249573 455.398285,206.033707 459.760986,205.795441 
	C459.760986,229.918579 459.760986,253.636398 459.760986,277.678955 
	C456.063782,277.678955 452.330841,277.678955 448.145935,277.678955 
	C448.145935,262.823669 448.145935,247.945160 448.145935,233.066650 
	C447.847015,232.997864 447.548065,232.929092 447.249146,232.860321 
	C440.827881,246.852859 434.468109,260.874451 427.890320,274.792999 
	C427.233337,276.183105 425.397583,277.401093 423.851288,277.899384 
	C421.268738,278.731628 419.960724,277.288300 418.818756,274.721588 
	C412.672607,260.906891 406.224609,247.226486 399.153534,233.568665 
	C399.153534,248.184952 399.153534,262.801239 399.153534,277.706329 
	C394.873688,277.706329 391.126740,277.706329 387.005371,277.706329 
	C387.005371,253.992828 387.005371,230.283859 387.005371,206.000534 
	C390.278107,206.000534 393.624054,205.632996 396.821503,206.162399 
	C398.321381,206.410736 400.092682,208.127136 400.791870,209.622116 
	C407.633423,224.249680 414.271271,238.972488 420.977234,253.663544 
	C421.719788,255.290298 422.525848,256.888092 423.528320,258.967896 
	C431.521332,241.405716 439.305695,224.302048 447.291840,206.831909 
z"/>
<path fill="#76306A" opacity="1.000000" stroke="none" 
	d="
M619.711365,214.266144 
	C633.099609,228.005966 635.836487,250.011627 619.842773,266.700592 
	C623.962585,266.700592 627.638062,266.700592 631.658691,266.700592 
	C631.658691,270.582520 631.658691,273.974670 631.658691,278.003998 
	C622.653503,278.003998 613.561951,278.154480 604.478027,277.956909 
	C597.038330,277.795166 589.428040,278.108093 582.208496,276.650116 
	C564.544067,273.082764 554.611206,258.871918 554.711548,240.711197 
	C554.821289,220.839767 570.221497,204.922440 590.984985,204.844116 
	C601.637207,204.803940 611.227417,207.029160 619.711365,214.266144 
M582.130127,264.727692 
	C591.338562,266.726349 600.585754,267.879608 608.722534,261.720856 
	C618.340149,254.441299 620.800354,240.162476 614.808838,228.867905 
	C609.462341,218.789215 596.545715,213.966217 584.766296,217.650162 
	C574.354492,220.906418 568.132263,229.228302 567.922119,240.178436 
	C567.675476,253.025635 571.702454,260.174652 582.130127,264.727692 
z"/>
<path fill="#762F6A" opacity="1.000000" stroke="none" 
	d="
M137.981812,278.002991 
	C135.537842,278.002991 133.570190,278.002991 131.315720,278.002991 
	C131.315720,253.953384 131.315720,230.249161 131.315720,206.925415 
	C143.789841,206.925415 156.260971,205.951767 168.499847,207.219727 
	C179.147568,208.322861 184.809662,215.281326 185.976898,224.556915 
	C187.419052,236.017426 183.587830,243.948593 174.142685,249.066330 
	C173.280197,249.533661 172.431793,250.026978 171.298569,250.664902 
	C175.978012,259.635254 180.584854,268.466431 185.556046,277.996063 
	C181.172150,277.996063 177.552002,278.201324 173.981308,277.871307 
	C172.906479,277.772003 171.637344,276.366180 171.023834,275.247986 
	C167.535645,268.890320 164.093933,262.499878 160.899780,255.991364 
	C159.422226,252.980652 157.656647,251.420517 154.089432,251.830704 
	C150.984253,252.187775 147.805511,251.905060 144.197205,251.905060 
	C144.197205,260.561676 144.197205,268.965851 144.197205,278.002991 
	C141.978745,278.002991 140.218445,278.002991 137.981812,278.002991 
M165.368591,217.640244 
	C158.350128,217.309494 151.331680,216.978760 144.002136,216.633362 
	C144.002136,221.372101 144.002136,225.173950 144.002136,228.975784 
	C144.002136,232.901337 144.002136,236.826889 144.002136,240.996201 
	C150.113647,240.996201 155.587509,241.149902 161.048904,240.954803 
	C167.022049,240.741425 172.021561,236.892227 172.950043,232.177811 
	C174.323624,225.203445 172.369446,221.109543 165.368591,217.640244 
z"/>
<path fill="#772E69" opacity="1.000000" stroke="none" 
	d="
M316.095032,264.700928 
	C314.976562,259.369537 313.270111,254.415359 313.134521,249.418549 
	C312.747192,235.146133 312.998352,220.856384 312.998352,206.287125 
	C317.381531,206.287125 321.436646,206.287125 326.001678,206.287125 
	C326.001678,220.990601 325.994568,235.584305 326.004059,250.178009 
	C326.010895,260.660278 331.621094,267.082642 341.974915,267.937408 
	C351.582825,268.730591 361.312775,262.716705 361.209290,251.981506 
	C361.077850,238.342636 361.354401,224.699829 361.452118,211.058716 
	C361.462677,209.585297 361.453583,208.111725 361.453583,206.319839 
	C365.886780,206.319839 369.937683,206.319839 374.235016,206.319839 
	C374.235016,221.174286 374.440125,235.950851 374.111694,250.715546 
	C374.011414,255.221649 372.925232,259.862427 371.436737,264.144775 
	C369.134979,270.766968 364.126068,275.276886 357.516327,277.372040 
	C347.355560,280.592804 336.891449,281.295593 327.365936,275.830444 
	C323.021973,273.338135 319.900391,268.715240 316.095032,264.700928 
z"/>
<path fill="#76306A" opacity="1.000000" stroke="none" 
	d="
M476.193176,205.997681 
	C491.495483,205.996780 506.314240,205.996780 521.137024,205.996780 
	C521.420898,206.629486 521.761047,207.052460 521.786560,207.493668 
	C522.331421,216.905289 522.324524,216.905685 512.848450,216.905685 
	C504.061066,216.905685 495.273682,216.905685 486.247314,216.905685 
	C486.247314,223.751160 486.247314,230.151184 486.247314,236.990906 
	C494.880127,236.990906 503.302948,236.990906 511.975403,236.990906 
	C511.975403,240.494003 511.975403,243.560822 511.975403,247.139084 
	C503.392792,247.139084 494.982819,247.139084 486.293823,247.139084 
	C486.293823,253.893906 486.293823,260.145020 486.293823,267.094330 
	C494.836395,267.094330 503.424622,267.094360 512.012817,267.094360 
	C513.512573,267.094360 515.043335,267.290222 516.506287,267.058075 
	C521.109436,266.327606 522.500366,268.429321 521.902100,272.680145 
	C521.695557,274.147858 521.869202,275.669067 521.869202,277.584564 
	C505.686432,277.584564 489.644379,277.584564 473.258820,277.584564 
	C473.179047,276.613495 473.009338,275.505280 473.008545,274.396942 
	C472.992767,253.067307 472.974670,231.737610 473.035736,210.408142 
	C473.041016,208.565750 471.842865,205.645721 476.193176,205.997681 
z"/>
<path fill="#76306A" opacity="1.000000" stroke="none" 
	d="
M234.974731,205.996124 
	C238.591965,205.996124 241.713959,205.996124 245.004608,205.996124 
	C245.004608,209.767609 245.004608,213.020706 245.004608,216.743256 
	C233.368744,216.743256 221.965546,216.743256 210.241776,216.743256 
	C210.241776,223.597565 210.241776,229.990143 210.241776,236.859894 
	C218.631042,236.859894 227.033920,236.859894 235.714935,236.859894 
	C235.714935,240.392410 235.714935,243.465714 235.714935,247.088867 
	C227.327637,247.088867 218.940872,247.088867 210.240891,247.088867 
	C210.240891,253.867783 210.240891,260.110840 210.240891,266.846832 
	C221.518921,266.846832 232.912659,266.846832 244.777832,266.846832 
	C244.777832,270.684387 244.777832,274.048096 244.777832,277.713745 
	C229.158966,277.713745 213.417084,277.713745 197.334808,277.713745 
	C197.334808,254.065643 197.334808,230.360092 197.334808,205.996124 
	C209.654129,205.996124 222.066818,205.996124 234.974731,205.996124 
z"/>
<path fill="#76306A" opacity="1.000000" stroke="none" 
	d="
M257.713196,212.812134 
	C262.858582,207.662598 268.693573,204.734131 275.657593,205.059753 
	C283.342194,205.419067 291.003082,206.286697 298.786133,206.942322 
	C298.786133,211.729126 298.786133,215.183502 298.786133,217.696884 
	C292.077393,216.804077 285.341003,215.558838 278.552185,215.113693 
	C273.047638,214.752731 267.826965,218.545319 267.248993,222.933151 
	C266.563690,228.135757 269.851807,231.279007 274.080231,233.403091 
	C279.974396,236.363876 286.100189,238.876740 291.916901,241.975418 
	C300.337128,246.461044 304.183838,253.946472 302.907715,262.402039 
	C301.646606,270.758087 295.102570,277.115204 285.926727,278.898102 
	C275.905945,280.845123 262.580902,279.441193 253.252182,275.434540 
	C253.252182,272.033997 253.252182,268.609528 253.252182,266.075012 
	C261.534332,267.061127 269.636963,268.568085 277.781799,268.848511 
	C286.550751,269.150391 291.754730,261.402374 287.566986,254.735016 
	C286.038788,252.301956 282.900604,250.678329 280.207733,249.219040 
	C273.866425,245.782578 267.112701,243.059692 260.965118,239.324951 
	C252.860764,234.401413 250.723907,220.952301 257.713196,212.812134 
z"/>
<path fill="#772D68" opacity="1.000000" stroke="none" 
	d="
M543.999634,263.993286 
	C543.999634,268.788025 543.999634,273.084442 543.999634,277.688782 
	C539.666016,277.688782 535.615906,277.688782 531.279907,277.688782 
	C531.279907,253.976517 531.279907,230.299713 531.279907,206.311172 
	C535.334167,206.311172 539.384216,206.311172 543.999634,206.311172 
	C543.999634,225.394012 543.999634,244.444504 543.999634,263.993286 
z"/>
<path fill="#FCFAFC" opacity="1.000000" stroke="none" 
	d="
M581.807190,264.491547 
	C571.702454,260.174652 567.675476,253.025635 567.922119,240.178436 
	C568.132263,229.228302 574.354492,220.906418 584.766296,217.650162 
	C596.545715,213.966217 609.462341,218.789215 614.808838,228.867905 
	C620.800354,240.162476 618.340149,254.441299 608.722534,261.720856 
	C600.585754,267.879608 591.338562,266.726349 581.807190,264.491547 
z"/>
<path fill="#FCFBFC" opacity="1.000000" stroke="none" 
	d="
M165.756302,217.779877 
	C172.369446,221.109543 174.323624,225.203445 172.950043,232.177811 
	C172.021561,236.892227 167.022049,240.741425 161.048904,240.954803 
	C155.587509,241.149902 150.113647,240.996201 144.002136,240.996201 
	C144.002136,236.826889 144.002136,232.901337 144.002136,228.975784 
	C144.002136,225.173950 144.002136,221.372101 144.002136,216.633362 
	C151.331680,216.978760 158.350128,217.309494 165.756302,217.779877 
z"/>
</svg>